ply
format ascii 1.0
comment Created by Blender 2.77 (sub 0) - www.blender.org, source file: ''
element vertex 240
property float x
property float y
property float z
property float nx
property float ny
property float nz
property uchar red
property uchar green
property uchar blue
element face 80
property list uchar uint vertex_indices
end_header
0.857357 -0.518474 -0.469915 0.102381 -0.315090 -0.943523 255 255 255
1.282679 -0.827485 -0.320569 0.102381 -0.315090 -0.943523 255 255 255
0.694901 -1.018469 -0.320569 0.102381 -0.315090 -0.943523 255 255 255
1.580964 -1.044199 0.082865 0.700224 -0.268032 -0.661699 5 252 52
1.282679 -0.827485 -0.320569 0.700224 -0.268032 -0.661699 1 255 49
1.708005 -0.518474 0.004349 0.700224 -0.268032 -0.661699 0 255 49
0.857357 -0.518474 -0.469915 -0.268034 -0.194736 -0.943523 255 255 255
0.694901 -1.018469 -0.320569 -0.268034 -0.194736 -0.943523 255 255 255
0.331627 -0.518474 -0.320567 -0.268034 -0.194736 -0.943523 255 255 255
0.857357 -0.518474 -0.469915 -0.268034 0.194737 -0.943523 255 255 255
0.331627 -0.518474 -0.320567 -0.268034 0.194737 -0.943523 255 255 255
0.694901 -0.018479 -0.320569 -0.268034 0.194737 -0.943523 255 255 255
0.857357 -0.518474 -0.469915 0.102381 0.315090 -0.943523 255 255 255
0.694901 -0.018479 -0.320569 0.102381 0.315090 -0.943523 255 255 255
1.282679 -0.209462 -0.320569 0.102381 0.315090 -0.943523 255 255 255
1.580964 -1.044199 0.082865 0.904989 -0.268032 -0.330385 5 252 52
1.708005 -0.518474 0.004349 0.904989 -0.268032 -0.330385 0 255 49
1.808415 -0.827486 0.530085 0.904989 -0.268032 -0.330385 187 41 225
0.580969 -1.369123 0.082865 0.024746 -0.943521 -0.330386 0 255 49
1.120226 -1.327485 0.004347 0.024746 -0.943521 -0.330386 0 255 49
0.857357 -1.518474 0.530085 0.024746 -0.943521 -0.330386 2 253 51
-0.037069 -0.518474 0.082869 -0.889697 -0.315095 -0.330385 255 255 255
0.169167 -1.018471 0.004349 -0.889697 -0.315095 -0.330385 255 255 255
-0.093701 -0.827486 0.530085 -0.889697 -0.315095 -0.330385 255 255 255
0.580969 0.332175 0.082865 -0.574602 0.748784 -0.330388 255 255 255
0.169167 -0.018477 0.004349 -0.574602 0.748784 -0.330388 255 255 255
0.269571 0.290543 0.530085 -0.574602 0.748784 -0.330388 255 255 255
1.580964 0.007252 0.082865 0.534576 0.777865 -0.330386 255 255 255
1.120226 0.290538 0.004347 0.534576 0.777865 -0.330386 255 255 255
1.445142 0.290543 0.530085 0.534576 0.777865 -0.330386 255 255 255
1.580964 -1.044199 0.082865 0.802609 -0.583126 -0.125627 5 252 52
1.808415 -0.827486 0.530085 0.802609 -0.583126 -0.125627 187 41 225
1.445142 -1.327491 0.530085 0.802609 -0.583126 -0.125627 213 109 174
0.580969 -1.369123 0.082865 -0.306569 -0.943522 -0.125629 255 255 255
0.857357 -1.518474 0.530085 -0.306569 -0.943522 -0.125629 255 255 255
0.269571 -1.327491 0.530085 -0.306569 -0.943522 -0.125629 255 255 255
-0.037069 -0.518474 0.082869 -0.992077 -0.000000 -0.125628 255 255 255
-0.093701 -0.827486 0.530085 -0.992077 -0.000000 -0.125628 255 255 255
-0.093701 -0.209461 0.530085 -0.992077 -0.000000 -0.125628 255 255 255
0.580969 0.332175 0.082865 -0.306569 0.943522 -0.125629 255 255 255
0.269571 0.290543 0.530085 -0.306569 0.943522 -0.125629 255 255 255
0.857357 0.481526 0.530085 -0.306569 0.943522 -0.125629 255 255 255
1.580964 0.007252 0.082865 0.802609 0.583126 -0.125627 0 255 49
1.445142 0.290543 0.530085 0.802609 0.583126 -0.125627 217 187 249
1.808415 -0.209461 0.530085 0.802609 0.583126 -0.125627 98 77 193
1.133745 -1.369123 0.977305 0.408946 -0.628425 0.661698 252 87 192
1.545546 -1.018471 1.055821 0.408946 -0.628425 0.661698 255 89 191
1.019812 -1.018469 1.380739 0.408946 -0.628425 0.661698 200 75 199
0.133749 -1.044199 0.977304 -0.471300 -0.583122 0.661699 62 203 93
0.594488 -1.327485 1.055823 -0.471300 -0.583122 0.661699 65 201 95
0.432034 -0.827485 1.380739 -0.471300 -0.583122 0.661699 134 67 226
0.133749 0.007252 0.977304 -0.700224 0.268032 0.661699 255 255 255
0.006709 -0.518474 1.055821 -0.700224 0.268032 0.661699 255 255 255
0.432034 -0.209462 1.380739 -0.700224 0.268032 0.661699 255 255 255
1.133745 0.332175 0.977305 0.038530 0.748779 0.661699 255 255 255
0.594488 0.290538 1.055823 0.038530 0.748779 0.661699 255 255 255
1.019812 -0.018479 1.380739 0.038530 0.748779 0.661699 255 255 255
1.751783 -0.518474 0.977301 0.724042 0.194736 0.661695 155 12 246
1.545546 -0.018477 1.055821 0.724042 0.194736 0.661695 140 0 255
1.383087 -0.518474 1.380737 0.724042 0.194736 0.661695 141 1 254
1.383087 -0.518474 1.380737 0.268034 0.194737 0.943523 141 1 254
1.019812 -0.018479 1.380739 0.268034 0.194737 0.943523 140 0 255
0.857357 -0.518474 1.530085 0.268034 0.194737 0.943523 140 0 255
1.383087 -0.518474 1.380737 0.491119 0.356821 0.794658 141 1 254
1.545546 -0.018477 1.055821 0.491119 0.356821 0.794658 140 0 255
1.019812 -0.018479 1.380739 0.491119 0.356821 0.794658 140 0 255
1.545546 -0.018477 1.055821 0.408946 0.628425 0.661698 140 0 255
1.133745 0.332175 0.977305 0.408946 0.628425 0.661698 141 1 255
1.019812 -0.018479 1.380739 0.408946 0.628425 0.661698 140 0 255
1.019812 -0.018479 1.380739 -0.102381 0.315090 0.943523 140 0 255
0.432034 -0.209462 1.380739 -0.102381 0.315090 0.943523 140 0 255
0.857357 -0.518474 1.530085 -0.102381 0.315090 0.943523 140 0 255
1.019812 -0.018479 1.380739 -0.187594 0.577345 0.794658 255 255 255
0.594488 0.290538 1.055823 -0.187594 0.577345 0.794658 255 255 255
0.432034 -0.209462 1.380739 -0.187594 0.577345 0.794658 255 255 255
0.594488 0.290538 1.055823 -0.471300 0.583122 0.661699 255 255 255
0.133749 0.007252 0.977304 -0.471300 0.583122 0.661699 255 255 255
0.432034 -0.209462 1.380739 -0.471300 0.583122 0.661699 255 255 255
0.432034 -0.209462 1.380739 -0.331304 0.000000 0.943524 140 0 255
0.432034 -0.827485 1.380739 -0.331304 0.000000 0.943524 134 67 226
0.857357 -0.518474 1.530085 -0.331304 0.000000 0.943524 140 0 255
0.432034 -0.209462 1.380739 -0.607060 0.000000 0.794656 255 255 255
0.006709 -0.518474 1.055821 -0.607060 0.000000 0.794656 255 255 255
0.432034 -0.827485 1.380739 -0.607060 0.000000 0.794656 255 255 255
0.006709 -0.518474 1.055821 -0.700224 -0.268032 0.661699 255 255 255
0.133749 -1.044199 0.977304 -0.700224 -0.268032 0.661699 255 255 255
0.432034 -0.827485 1.380739 -0.700224 -0.268032 0.661699 255 255 255
0.432034 -0.827485 1.380739 -0.102381 -0.315090 0.943523 134 67 226
1.019812 -1.018469 1.380739 -0.102381 -0.315090 0.943523 200 75 199
0.857357 -0.518474 1.530085 -0.102381 -0.315090 0.943523 140 0 255
0.432034 -0.827485 1.380739 -0.187594 -0.577345 0.794658 134 67 226
0.594488 -1.327485 1.055823 -0.187594 -0.577345 0.794658 65 201 95
1.019812 -1.018469 1.380739 -0.187594 -0.577345 0.794658 200 75 199
0.594488 -1.327485 1.055823 0.038530 -0.748779 0.661699 65 201 95
1.133745 -1.369123 0.977305 0.038530 -0.748779 0.661699 252 87 192
1.019812 -1.018469 1.380739 0.038530 -0.748779 0.661699 200 75 199
1.019812 -1.018469 1.380739 0.268034 -0.194737 0.943523 200 75 199
1.383087 -0.518474 1.380737 0.268034 -0.194737 0.943523 141 1 254
0.857357 -0.518474 1.530085 0.268034 -0.194737 0.943523 140 0 255
1.019812 -1.018469 1.380739 0.491119 -0.356821 0.794658 200 75 199
1.545546 -1.018471 1.055821 0.491119 -0.356821 0.794658 255 89 191
1.383087 -0.518474 1.380737 0.491119 -0.356821 0.794658 141 1 254
1.545546 -1.018471 1.055821 0.724042 -0.194736 0.661695 255 89 191
1.751783 -0.518474 0.977301 0.724042 -0.194736 0.661695 155 12 246
1.383087 -0.518474 1.380737 0.724042 -0.194736 0.661695 141 1 254
1.808415 -0.209461 0.530085 0.889697 0.315095 0.330385 98 77 193
1.545546 -0.018477 1.055821 0.889697 0.315095 0.330385 140 0 255
1.751783 -0.518474 0.977301 0.889697 0.315095 0.330385 155 12 246
1.808415 -0.209461 0.530085 0.794656 0.577348 0.187595 98 77 193
1.445142 0.290543 0.530085 0.794656 0.577348 0.187595 217 187 249
1.545546 -0.018477 1.055821 0.794656 0.577348 0.187595 140 0 255
1.445142 0.290543 0.530085 0.574602 0.748784 0.330388 217 187 249
1.133745 0.332175 0.977305 0.574602 0.748784 0.330388 141 1 255
1.545546 -0.018477 1.055821 0.574602 0.748784 0.330388 140 0 255
0.857357 0.481526 0.530085 -0.024747 0.943521 0.330386 255 255 255
0.594488 0.290538 1.055823 -0.024747 0.943521 0.330386 255 255 255
1.133745 0.332175 0.977305 -0.024747 0.943521 0.330386 255 255 255
0.857357 0.481526 0.530085 -0.303531 0.934171 0.187597 255 255 255
0.269571 0.290543 0.530085 -0.303531 0.934171 0.187597 255 255 255
0.594488 0.290538 1.055823 -0.303531 0.934171 0.187597 255 255 255
0.269571 0.290543 0.530085 -0.534576 0.777865 0.330387 255 255 255
0.133749 0.007252 0.977304 -0.534576 0.777865 0.330387 255 255 255
0.594488 0.290538 1.055823 -0.534576 0.777865 0.330387 255 255 255
-0.093701 -0.209461 0.530085 -0.904989 0.268032 0.330385 255 255 255
0.006709 -0.518474 1.055821 -0.904989 0.268032 0.330385 255 255 255
0.133749 0.007252 0.977304 -0.904989 0.268032 0.330385 255 255 255
-0.093701 -0.209461 0.530085 -0.982246 0.000000 0.187599 255 255 255
-0.093701 -0.827486 0.530085 -0.982246 0.000000 0.187599 255 255 255
0.006709 -0.518474 1.055821 -0.982246 0.000000 0.187599 255 255 255
-0.093701 -0.827486 0.530085 -0.904989 -0.268032 0.330385 255 255 255
0.133749 -1.044199 0.977304 -0.904989 -0.268032 0.330385 255 255 255
0.006709 -0.518474 1.055821 -0.904989 -0.268032 0.330385 255 255 255
0.269571 -1.327491 0.530085 -0.534576 -0.777864 0.330387 255 255 255
0.594488 -1.327485 1.055823 -0.534576 -0.777864 0.330387 255 255 255
0.133749 -1.044199 0.977304 -0.534576 -0.777864 0.330387 255 255 255
0.269571 -1.327491 0.530085 -0.303531 -0.934171 0.187597 33 227 74
0.857357 -1.518474 0.530085 -0.303531 -0.934171 0.187597 2 253 51
0.594488 -1.327485 1.055823 -0.303531 -0.934171 0.187597 65 201 95
0.857357 -1.518474 0.530085 -0.024746 -0.943521 0.330386 2 253 51
1.133745 -1.369123 0.977305 -0.024746 -0.943521 0.330386 252 87 192
0.594488 -1.327485 1.055823 -0.024746 -0.943521 0.330386 65 201 95
1.445142 -1.327491 0.530085 0.574602 -0.748784 0.330388 213 109 174
1.545546 -1.018471 1.055821 0.574602 -0.748784 0.330388 255 89 191
1.133745 -1.369123 0.977305 0.574602 -0.748784 0.330388 252 87 192
1.445142 -1.327491 0.530085 0.794656 -0.577348 0.187595 213 109 174
1.808415 -0.827486 0.530085 0.794656 -0.577348 0.187595 187 41 225
1.545546 -1.018471 1.055821 0.794656 -0.577348 0.187595 255 89 191
1.808415 -0.827486 0.530085 0.889697 -0.315095 0.330385 187 41 225
1.751783 -0.518474 0.977301 0.889697 -0.315095 0.330385 155 12 246
1.545546 -1.018471 1.055821 0.889697 -0.315095 0.330385 255 89 191
1.445142 0.290543 0.530085 0.306569 0.943522 0.125629 255 255 255
0.857357 0.481526 0.530085 0.306569 0.943522 0.125629 255 255 255
1.133745 0.332175 0.977305 0.306569 0.943522 0.125629 255 255 255
1.445142 0.290543 0.530085 0.303531 0.934171 -0.187597 255 255 255
1.120226 0.290538 0.004347 0.303531 0.934171 -0.187597 255 255 255
0.857357 0.481526 0.530085 0.303531 0.934171 -0.187597 255 255 255
1.120226 0.290538 0.004347 0.024747 0.943521 -0.330386 255 255 255
0.580969 0.332175 0.082865 0.024747 0.943521 -0.330386 255 255 255
0.857357 0.481526 0.530085 0.024747 0.943521 -0.330386 255 255 255
0.269571 0.290543 0.530085 -0.802609 0.583126 0.125627 255 255 255
-0.093701 -0.209461 0.530085 -0.802609 0.583126 0.125627 255 255 255
0.133749 0.007252 0.977304 -0.802609 0.583126 0.125627 255 255 255
0.269571 0.290543 0.530085 -0.794656 0.577348 -0.187595 255 255 255
0.169167 -0.018477 0.004349 -0.794656 0.577348 -0.187595 255 255 255
-0.093701 -0.209461 0.530085 -0.794656 0.577348 -0.187595 255 255 255
0.169167 -0.018477 0.004349 -0.889697 0.315095 -0.330385 255 255 255
-0.037069 -0.518474 0.082869 -0.889697 0.315095 -0.330385 255 255 255
-0.093701 -0.209461 0.530085 -0.889697 0.315095 -0.330385 255 255 255
-0.093701 -0.827486 0.530085 -0.802609 -0.583126 0.125627 255 255 255
0.269571 -1.327491 0.530085 -0.802609 -0.583126 0.125627 255 255 255
0.133749 -1.044199 0.977304 -0.802609 -0.583126 0.125627 255 255 255
-0.093701 -0.827486 0.530085 -0.794656 -0.577348 -0.187595 255 255 255
0.169167 -1.018471 0.004349 -0.794656 -0.577348 -0.187595 255 255 255
0.269571 -1.327491 0.530085 -0.794656 -0.577348 -0.187595 255 255 255
0.169167 -1.018471 0.004349 -0.574602 -0.748784 -0.330388 255 255 255
0.580969 -1.369123 0.082865 -0.574602 -0.748784 -0.330388 255 255 255
0.269571 -1.327491 0.530085 -0.574602 -0.748784 -0.330388 255 255 255
0.857357 -1.518474 0.530085 0.306569 -0.943522 0.125629 2 253 51
1.445142 -1.327491 0.530085 0.306569 -0.943522 0.125629 213 109 174
1.133745 -1.369123 0.977305 0.306569 -0.943522 0.125629 252 87 192
0.857357 -1.518474 0.530085 0.303531 -0.934171 -0.187597 2 253 51
1.120226 -1.327485 0.004347 0.303531 -0.934171 -0.187597 0 255 49
1.445142 -1.327491 0.530085 0.303531 -0.934171 -0.187597 213 109 174
1.120226 -1.327485 0.004347 0.534576 -0.777864 -0.330387 0 255 49
1.580964 -1.044199 0.082865 0.534576 -0.777864 -0.330387 5 252 52
1.445142 -1.327491 0.530085 0.534576 -0.777864 -0.330387 213 109 174
1.808415 -0.827486 0.530085 0.992077 0.000000 0.125628 187 41 225
1.808415 -0.209461 0.530085 0.992077 0.000000 0.125628 98 77 193
1.751783 -0.518474 0.977301 0.992077 0.000000 0.125628 155 12 246
1.808415 -0.827486 0.530085 0.982246 0.000000 -0.187599 187 41 225
1.708005 -0.518474 0.004349 0.982246 0.000000 -0.187599 0 255 49
1.808415 -0.209461 0.530085 0.982246 0.000000 -0.187599 98 77 193
1.708005 -0.518474 0.004349 0.904989 0.268032 -0.330385 0 255 49
1.580964 0.007252 0.082865 0.904989 0.268032 -0.330385 0 255 49
1.808415 -0.209461 0.530085 0.904989 0.268032 -0.330385 98 77 193
1.282679 -0.209462 -0.320569 0.471300 0.583122 -0.661699 255 255 255
1.120226 0.290538 0.004347 0.471300 0.583122 -0.661699 255 255 255
1.580964 0.007252 0.082865 0.471300 0.583122 -0.661699 255 255 255
1.282679 -0.209462 -0.320569 0.187594 0.577345 -0.794658 255 255 255
0.694901 -0.018479 -0.320569 0.187594 0.577345 -0.794658 255 255 255
1.120226 0.290538 0.004347 0.187594 0.577345 -0.794658 255 255 255
0.694901 -0.018479 -0.320569 -0.038530 0.748779 -0.661699 255 255 255
0.580969 0.332175 0.082865 -0.038530 0.748779 -0.661699 255 255 255
1.120226 0.290538 0.004347 -0.038530 0.748779 -0.661699 255 255 255
0.694901 -0.018479 -0.320569 -0.408946 0.628425 -0.661698 255 255 255
0.169167 -0.018477 0.004349 -0.408946 0.628425 -0.661698 255 255 255
0.580969 0.332175 0.082865 -0.408946 0.628425 -0.661698 255 255 255
0.694901 -0.018479 -0.320569 -0.491119 0.356821 -0.794657 255 255 255
0.331627 -0.518474 -0.320567 -0.491119 0.356821 -0.794657 255 255 255
0.169167 -0.018477 0.004349 -0.491119 0.356821 -0.794657 255 255 255
0.331627 -0.518474 -0.320567 -0.724042 0.194736 -0.661695 255 255 255
-0.037069 -0.518474 0.082869 -0.724042 0.194736 -0.661695 255 255 255
0.169167 -0.018477 0.004349 -0.724042 0.194736 -0.661695 255 255 255
0.331627 -0.518474 -0.320567 -0.724042 -0.194736 -0.661695 255 255 255
0.169167 -1.018471 0.004349 -0.724042 -0.194736 -0.661695 255 255 255
-0.037069 -0.518474 0.082869 -0.724042 -0.194736 -0.661695 255 255 255
0.331627 -0.518474 -0.320567 -0.491119 -0.356821 -0.794657 255 255 255
0.694901 -1.018469 -0.320569 -0.491119 -0.356821 -0.794657 255 255 255
0.169167 -1.018471 0.004349 -0.491119 -0.356821 -0.794657 255 255 255
0.694901 -1.018469 -0.320569 -0.408946 -0.628425 -0.661698 255 255 255
0.580969 -1.369123 0.082865 -0.408946 -0.628425 -0.661698 255 255 255
0.169167 -1.018471 0.004349 -0.408946 -0.628425 -0.661698 255 255 255
1.708005 -0.518474 0.004349 0.700224 0.268032 -0.661699 0 255 49
1.282679 -0.209462 -0.320569 0.700224 0.268032 -0.661699 0 255 49
1.580964 0.007252 0.082865 0.700224 0.268032 -0.661699 0 255 49
1.708005 -0.518474 0.004349 0.607060 0.000000 -0.794656 0 255 49
1.282679 -0.827485 -0.320569 0.607060 0.000000 -0.794656 1 255 49
1.282679 -0.209462 -0.320569 0.607060 0.000000 -0.794656 0 255 49
1.282679 -0.827485 -0.320569 0.331305 0.000000 -0.943524 255 255 255
0.857357 -0.518474 -0.469915 0.331305 0.000000 -0.943524 255 255 255
1.282679 -0.209462 -0.320569 0.331305 0.000000 -0.943524 255 255 255
0.694901 -1.018469 -0.320569 -0.038530 -0.748779 -0.661699 255 255 255
1.120226 -1.327485 0.004347 -0.038530 -0.748779 -0.661699 255 255 255
0.580969 -1.369123 0.082865 -0.038530 -0.748779 -0.661699 255 255 255
0.694901 -1.018469 -0.320569 0.187594 -0.577345 -0.794658 255 255 255
1.282679 -0.827485 -0.320569 0.187594 -0.577345 -0.794658 255 255 255
1.120226 -1.327485 0.004347 0.187594 -0.577345 -0.794658 255 255 255
1.282679 -0.827485 -0.320569 0.471300 -0.583122 -0.661699 1 255 49
1.580964 -1.044199 0.082865 0.471300 -0.583122 -0.661699 5 252 52
1.120226 -1.327485 0.004347 0.471300 -0.583122 -0.661699 0 255 49
3 0 1 2
3 3 4 5
3 6 7 8
3 9 10 11
3 12 13 14
3 15 16 17
3 18 19 20
3 21 22 23
3 24 25 26
3 27 28 29
3 30 31 32
3 33 34 35
3 36 37 38
3 39 40 41
3 42 43 44
3 45 46 47
3 48 49 50
3 51 52 53
3 54 55 56
3 57 58 59
3 60 61 62
3 63 64 65
3 66 67 68
3 69 70 71
3 72 73 74
3 75 76 77
3 78 79 80
3 81 82 83
3 84 85 86
3 87 88 89
3 90 91 92
3 93 94 95
3 96 97 98
3 99 100 101
3 102 103 104
3 105 106 107
3 108 109 110
3 111 112 113
3 114 115 116
3 117 118 119
3 120 121 122
3 123 124 125
3 126 127 128
3 129 130 131
3 132 133 134
3 135 136 137
3 138 139 140
3 141 142 143
3 144 145 146
3 147 148 149
3 150 151 152
3 153 154 155
3 156 157 158
3 159 160 161
3 162 163 164
3 165 166 167
3 168 169 170
3 171 172 173
3 174 175 176
3 177 178 179
3 180 181 182
3 183 184 185
3 186 187 188
3 189 190 191
3 192 193 194
3 195 196 197
3 198 199 200
3 201 202 203
3 204 205 206
3 207 208 209
3 210 211 212
3 213 214 215
3 216 217 218
3 219 220 221
3 222 223 224
3 225 226 227
3 228 229 230
3 231 232 233
3 234 235 236
3 237 238 239
